<svg width="1187" height="640" viewBox="0 0 1187 640" fill="none" xmlns="http://www.w3.org/2000/svg">
<path fill-rule="evenodd" clip-rule="evenodd" d="M2856.66 -785.162C2796.98 -1100.13 2556.34 -1365.19 2223.66 -1439.91C1899.93 -1512.61 1577.91 -1385.11 1387.02 -1139.35C1376.11 -1142.3 1365.09 -1145.02 1353.97 -1147.52C932.167 -1242.25 513.439 -977.103 418.711 -555.303C354.7 -270.281 455.01 13.338 656.939 196.535C586.231 291.753 533.847 402.976 506.184 526.151C400.312 997.575 696.649 1465.57 1168.07 1571.44C1407.88 1625.29 1646.8 1575.07 1837.61 1450.67C1945.56 1604.25 2108.77 1719.71 2306.35 1764.09C2605.03 1831.16 2902.16 1717.8 3083.81 1496.15C3192.32 1577.47 3319.38 1637.68 3460.26 1669.32C3993.72 1789.13 4523.28 1453.8 4643.09 920.343C4762.89 386.89 4427.56 -142.679 3894.11 -262.482C3829.64 -276.961 3765.22 -284.793 3701.58 -286.43C3624.48 -527.084 3425.48 -721.708 3161.1 -781.084C3057.64 -804.319 2954.38 -804.55 2856.66 -785.162Z" fill="#101E62"/>
</svg>
